<mxfile host="app.diagrams.net" modified="2023-11-05T19:33:10.778Z" agent="Mozilla/5.0 (Macintosh; Intel Mac OS X 10_15_7) AppleWebKit/605.1.15 (KHTML, like Gecko) Version/17.0 Safari/605.1.15" etag="VPsHjokSmoAur5nDjTZN" version="22.0.8" type="device">
  <diagram name="Page-1" id="ny0W6qMg7XnKosoj8Fqf">
    <mxGraphModel dx="1340" dy="1047" grid="1" gridSize="10" guides="1" tooltips="1" connect="1" arrows="1" fold="1" page="1" pageScale="1" pageWidth="827" pageHeight="1169" math="0" shadow="0">
      <root>
        <mxCell id="0" />
        <mxCell id="1" parent="0" />
        <mxCell id="Jq4VytF8kJ8zB8pJU4Ru-3" value="Vitrerie" style="whiteSpace=wrap;html=1;" vertex="1" parent="1">
          <mxGeometry x="394" y="10" width="210" height="40" as="geometry" />
        </mxCell>
        <mxCell id="Jq4VytF8kJ8zB8pJU4Ru-4" value="Type de prestation" style="text;html=1;align=left;verticalAlign=middle;resizable=0;points=[];autosize=1;strokeColor=none;fillColor=none;" vertex="1" parent="1">
          <mxGeometry x="224" y="15" width="120" height="30" as="geometry" />
        </mxCell>
        <mxCell id="Jq4VytF8kJ8zB8pJU4Ru-5" value="Intervenants sur la prestation :" style="text;html=1;align=left;verticalAlign=middle;resizable=0;points=[];autosize=1;strokeColor=none;fillColor=none;fontStyle=1;fontSize=16;" vertex="1" parent="1">
          <mxGeometry x="224" y="78" width="260" height="30" as="geometry" />
        </mxCell>
        <mxCell id="Jq4VytF8kJ8zB8pJU4Ru-6" value="- Intervenant 1" style="text;html=1;align=left;verticalAlign=middle;resizable=0;points=[];autosize=1;strokeColor=none;fillColor=none;" vertex="1" parent="1">
          <mxGeometry x="224" y="120" width="100" height="30" as="geometry" />
        </mxCell>
        <mxCell id="Jq4VytF8kJ8zB8pJU4Ru-7" value="- Intervenant 2" style="text;html=1;align=left;verticalAlign=middle;resizable=0;points=[];autosize=1;strokeColor=none;fillColor=none;" vertex="1" parent="1">
          <mxGeometry x="224" y="150" width="100" height="30" as="geometry" />
        </mxCell>
        <mxCell id="Jq4VytF8kJ8zB8pJU4Ru-8" value="Nom de l&#39;intervenant à ajouter" style="whiteSpace=wrap;html=1;" vertex="1" parent="1">
          <mxGeometry x="224" y="210" width="210" height="40" as="geometry" />
        </mxCell>
        <mxCell id="Jq4VytF8kJ8zB8pJU4Ru-9" value="- Intervenant 3" style="text;html=1;align=left;verticalAlign=middle;resizable=0;points=[];autosize=1;strokeColor=none;fillColor=none;" vertex="1" parent="1">
          <mxGeometry x="224" y="180" width="100" height="30" as="geometry" />
        </mxCell>
        <mxCell id="Jq4VytF8kJ8zB8pJU4Ru-10" value="+" style="whiteSpace=wrap;html=1;" vertex="1" parent="1">
          <mxGeometry x="564" y="210" width="40" height="40" as="geometry" />
        </mxCell>
        <mxCell id="Jq4VytF8kJ8zB8pJU4Ru-11" value="Informations sur la prestation :" style="text;html=1;align=left;verticalAlign=middle;resizable=0;points=[];autosize=1;strokeColor=none;fillColor=none;fontStyle=1;fontSize=16;" vertex="1" parent="1">
          <mxGeometry x="224" y="280" width="260" height="30" as="geometry" />
        </mxCell>
        <mxCell id="Jq4VytF8kJ8zB8pJU4Ru-12" value="Prestation" style="text;html=1;align=left;verticalAlign=middle;resizable=0;points=[];autosize=1;strokeColor=none;fillColor=none;" vertex="1" parent="1">
          <mxGeometry x="224" y="340" width="80" height="30" as="geometry" />
        </mxCell>
        <mxCell id="Jq4VytF8kJ8zB8pJU4Ru-13" value="Nettoyage des fenêtres" style="whiteSpace=wrap;html=1;" vertex="1" parent="1">
          <mxGeometry x="394" y="335" width="210" height="40" as="geometry" />
        </mxCell>
        <mxCell id="Jq4VytF8kJ8zB8pJU4Ru-14" value="Détails de la prestation (Si prestation &quot;Autre&quot; choisie, sinon caché)" style="text;html=1;align=left;verticalAlign=middle;resizable=0;points=[];autosize=1;fontColor=#B3B3B3;" vertex="1" parent="1">
          <mxGeometry x="224" y="530" width="380" height="30" as="geometry" />
        </mxCell>
        <mxCell id="Jq4VytF8kJ8zB8pJU4Ru-15" value="Description de la prestation..." style="whiteSpace=wrap;html=1;align=left;fontColor=#B3B3B3;labelBorderColor=none;strokeColor=#B3B3B3;" vertex="1" parent="1">
          <mxGeometry x="224" y="560" width="380" height="100" as="geometry" />
        </mxCell>
        <mxCell id="Jq4VytF8kJ8zB8pJU4Ru-16" value="Heure de début" style="text;html=1;align=left;verticalAlign=middle;resizable=0;points=[];autosize=1;strokeColor=none;fillColor=none;" vertex="1" parent="1">
          <mxGeometry x="224" y="690" width="110" height="30" as="geometry" />
        </mxCell>
        <mxCell id="Jq4VytF8kJ8zB8pJU4Ru-17" value="Heure de fin" style="text;html=1;align=left;verticalAlign=middle;resizable=0;points=[];autosize=1;strokeColor=none;fillColor=none;" vertex="1" parent="1">
          <mxGeometry x="478" y="690" width="90" height="30" as="geometry" />
        </mxCell>
        <mxCell id="Jq4VytF8kJ8zB8pJU4Ru-18" value="HH:MM" style="whiteSpace=wrap;html=1;" vertex="1" parent="1">
          <mxGeometry x="224" y="720" width="126" height="40" as="geometry" />
        </mxCell>
        <mxCell id="Jq4VytF8kJ8zB8pJU4Ru-19" value="HH:MM" style="whiteSpace=wrap;html=1;" vertex="1" parent="1">
          <mxGeometry x="478" y="720" width="126" height="40" as="geometry" />
        </mxCell>
        <mxCell id="Jq4VytF8kJ8zB8pJU4Ru-20" value="Signature du client :" style="text;html=1;align=left;verticalAlign=middle;resizable=0;points=[];autosize=1;strokeColor=none;fillColor=none;fontStyle=1;fontSize=16;" vertex="1" parent="1">
          <mxGeometry x="224" y="800" width="180" height="30" as="geometry" />
        </mxCell>
        <mxCell id="Jq4VytF8kJ8zB8pJU4Ru-21" value="" style="whiteSpace=wrap;html=1;" vertex="1" parent="1">
          <mxGeometry x="224" y="850" width="20" height="20" as="geometry" />
        </mxCell>
        <mxCell id="Jq4VytF8kJ8zB8pJU4Ru-22" value="Le client n&#39;a pas souhaité signer le bon" style="text;html=1;align=left;verticalAlign=middle;resizable=0;points=[];autosize=1;strokeColor=none;fillColor=none;" vertex="1" parent="1">
          <mxGeometry x="260" y="845" width="230" height="30" as="geometry" />
        </mxCell>
        <mxCell id="Jq4VytF8kJ8zB8pJU4Ru-23" value="Champ de signature" style="whiteSpace=wrap;html=1;align=center;fontColor=#B3B3B3;labelBorderColor=none;strokeColor=#000000;" vertex="1" parent="1">
          <mxGeometry x="224" y="890" width="380" height="100" as="geometry" />
        </mxCell>
        <mxCell id="Jq4VytF8kJ8zB8pJU4Ru-24" value="Commentaires sur la prestation..." style="whiteSpace=wrap;html=1;align=left;fontColor=#000000;labelBorderColor=none;strokeColor=#000000;" vertex="1" parent="1">
          <mxGeometry x="224" y="1080" width="380" height="100" as="geometry" />
        </mxCell>
        <mxCell id="Jq4VytF8kJ8zB8pJU4Ru-25" value="Commentaires :" style="text;html=1;align=left;verticalAlign=middle;resizable=0;points=[];autosize=1;strokeColor=none;fillColor=none;fontStyle=1;fontSize=16;" vertex="1" parent="1">
          <mxGeometry x="224" y="1030" width="140" height="30" as="geometry" />
        </mxCell>
        <mxCell id="Jq4VytF8kJ8zB8pJU4Ru-26" value="" style="whiteSpace=wrap;html=1;" vertex="1" parent="1">
          <mxGeometry x="304" y="1235" width="20" height="20" as="geometry" />
        </mxCell>
        <mxCell id="Jq4VytF8kJ8zB8pJU4Ru-27" value="Ne pas envoyer le bon au client" style="text;html=1;align=left;verticalAlign=middle;resizable=0;points=[];autosize=1;strokeColor=none;fillColor=none;" vertex="1" parent="1">
          <mxGeometry x="340" y="1230" width="190" height="30" as="geometry" />
        </mxCell>
        <mxCell id="Jq4VytF8kJ8zB8pJU4Ru-28" value="Confirmer et télécharger" style="whiteSpace=wrap;html=1;" vertex="1" parent="1">
          <mxGeometry x="332" y="1270" width="164" height="40" as="geometry" />
        </mxCell>
        <mxCell id="Jq4VytF8kJ8zB8pJU4Ru-29" value="" style="whiteSpace=wrap;html=1;" vertex="1" parent="1">
          <mxGeometry x="224" y="455" width="20" height="20" as="geometry" />
        </mxCell>
        <mxCell id="Jq4VytF8kJ8zB8pJU4Ru-30" value="Intérieur" style="text;html=1;align=left;verticalAlign=middle;resizable=0;points=[];autosize=1;strokeColor=none;fillColor=none;" vertex="1" parent="1">
          <mxGeometry x="260" y="450" width="70" height="30" as="geometry" />
        </mxCell>
        <mxCell id="Jq4VytF8kJ8zB8pJU4Ru-31" value="" style="whiteSpace=wrap;html=1;" vertex="1" parent="1">
          <mxGeometry x="224" y="485" width="20" height="20" as="geometry" />
        </mxCell>
        <mxCell id="Jq4VytF8kJ8zB8pJU4Ru-32" value="Extérieur" style="text;html=1;align=left;verticalAlign=middle;resizable=0;points=[];autosize=1;strokeColor=none;fillColor=none;" vertex="1" parent="1">
          <mxGeometry x="260" y="480" width="70" height="30" as="geometry" />
        </mxCell>
        <mxCell id="Jq4VytF8kJ8zB8pJU4Ru-33" value="Client" style="text;html=1;align=left;verticalAlign=middle;resizable=0;points=[];autosize=1;strokeColor=none;fillColor=none;" vertex="1" parent="1">
          <mxGeometry x="224" y="395" width="50" height="30" as="geometry" />
        </mxCell>
        <mxCell id="Jq4VytF8kJ8zB8pJU4Ru-34" value="Columbus Godrans" style="whiteSpace=wrap;html=1;" vertex="1" parent="1">
          <mxGeometry x="394" y="390" width="210" height="40" as="geometry" />
        </mxCell>
      </root>
    </mxGraphModel>
  </diagram>
</mxfile>
